<svg xmlns="http://www.w3.org/2000/svg" viewBox="0 0 33 32" width="33" height="32">
	<style>
		tspan { white-space:pre }
		.shp0 { fill: #ffe600 } 
	</style>
	<g id="Contact Us">
		<g id="Info">
			<g id="Phone">
				<path id="Icon" class="shp0" d="M23.83 19.33C21.72 21.45 21.72 23.56 19.61 23.56C17.5 23.56 15.38 21.45 13.27 19.33C11.17 17.22 9.05 15.11 9.05 13C9.05 10.89 11.17 10.89 13.27 8.78C15.38 6.67 9.05 0.34 6.94 0.34C4.83 0.34 0.61 6.67 0.61 6.67C0.61 10.89 4.95 19.45 9.05 23.56C13.16 27.66 21.72 32 25.94 32C25.94 32 32.27 27.78 32.27 25.67C32.27 23.56 25.94 17.22 23.83 19.33" />
			</g>
		</g>
	</g>
</svg>