<svg xmlns="http://www.w3.org/2000/svg" viewBox="0 0 43 44" width="43" height="44">
	<style>
		tspan { white-space:pre }
		.shp0 { fill: #ffe600 } 
	</style>
	<g id="Services">
		<g id="How We Do It">
			<g id="Progress">
				<g id="Preparing">
					<path id="Icon" class="shp0" d="M38.09 -0.01L40.98 24.54L37.73 24.92L35.15 3L7.78 3L5.2 24.92L1.95 24.54L4.85 -0.01L38.09 -0.01ZM11 4.95L31.97 4.95L32.01 7.99L11 8.07L11 4.95ZM11.02 10.99L32.04 10.99L32.01 14.02L10.99 13.98L11.02 10.99ZM11.02 16.98L32.01 16.98L32.01 20.01L10.99 20.04L11.02 16.98ZM10.96 21.98L32.01 21.98L32.04 25.04L10.99 25.01L10.96 21.98ZM41.86 28.04L0.83 27.98C0.07 27.98 -0.2 28.81 0.04 29.53L4.52 42.66C4.76 43.38 5.57 43.97 6.33 43.97L36.6 43.97C37.36 43.97 38.17 43.38 38.41 42.66L42.95 29.4C43.19 28.69 42.71 27.98 41.95 27.98M27 32.97L15.96 32.97L15.99 29.97L26.97 29.97L27 32.97Z" />
				</g>
			</g>
		</g>
	</g>
</svg>