<svg xmlns="http://www.w3.org/2000/svg" viewBox="0 0 45 36" width="45" height="36">
	<style>
		tspan { white-space:pre }
		.shp0 { fill: #ffe600 } 
	</style>
	<g id="Services">
		<g id="How We Do It">
			<g id="Progress">
				<g id="Deliver">
					<path id="Icon" class="shp0" d="M45.01 19.04L39.05 7.99L31 8.02L31 2.76C31 1.24 29.41 -0.01 27.87 -0.01L2.73 -0.01C1.2 -0.01 0.03 1.3 0.03 2.82L0 24.88L2.61 26.99L6.49 27.02C6.02 27.83 5.52 29.4 5.52 30.41C5.52 33.46 8.03 35.94 11.11 35.94C14.2 35.94 16.7 33.46 16.7 30.41C16.7 29.4 16.58 27.8 16.11 26.99L31.57 27.02C31.09 27.83 30.67 29.4 30.67 30.41C30.67 33.46 33.17 35.94 36.25 35.94C39.34 35.94 41.84 33.46 41.84 30.41C41.84 29.4 41.5 27.83 41.03 27.02L45.01 26.99L45.01 19.04ZM31.07 17.99L31.04 11.06L36.05 11L39.95 17.99L31.07 17.99Z" />
				</g>
			</g>
		</g>
	</g>
</svg>