<svg xmlns="http://www.w3.org/2000/svg" viewBox="0 0 42 45" width="42" height="45">
	<style>
		tspan { white-space:pre }
		.shp0 { fill: #ffe600 } 
	</style>
	<g id="Services">
		<g id="How We Do It">
			<g id="Progress">
				<g id="Analyse">
					<path id="Icon" class="shp0" d="M40.06 35.3L26.97 12.17L27 2.81L27.73 2.81C28.5 2.81 29.12 2.17 29.12 1.4C29.12 0.63 28.5 0 27.73 0L13.86 0C13.1 0 12.48 0.63 12.48 1.4C12.48 2.17 13.1 2.81 13.86 2.81L14.97 2.81L15 12.17L1.54 35.3C-1.6 40.6 0.83 44.93 6.93 44.93L34.67 44.93C40.77 44.93 43.19 40.6 40.06 35.3M9.08 27.96L17.99 12.94L17.99 2.99L24.01 2.99L24.01 12.94L32.45 27.96L9.08 27.96Z" />
				</g>
			</g>
		</g>
	</g>
</svg>