<svg xmlns="http://www.w3.org/2000/svg" viewBox="0 0 44 45" width="44" height="45">
	<style>
		tspan { white-space:pre }
		.shp0 { fill: #ffe600 } 
	</style>
	<g id="Services">
		<g id="How We Do It">
			<g id="Progress">
				<g id="Finalyse">
					<path id="Icon" class="shp0" d="M40.14 26.87C37.83 22.78 39.22 17.54 43.25 15.16L38.92 7.5C37.68 8.24 36.24 8.66 34.7 8.66C30.07 8.66 26.32 4.81 26.32 0.05L17.66 0.05C17.67 1.52 17.31 3.01 16.54 4.37C14.23 8.46 9.09 9.85 5.05 7.48L0.72 15.14C1.96 15.87 3.05 16.92 3.81 18.28C6.12 22.36 4.74 27.59 0.73 29.98L5.06 37.64C6.29 36.91 7.72 36.49 9.25 36.49C13.87 36.49 17.61 40.32 17.63 45.06L26.3 45.06C26.29 43.6 26.65 42.13 27.42 40.78C29.72 36.7 34.85 35.31 38.88 37.66L43.22 30C41.98 29.28 40.91 28.22 40.14 26.87M21.98 31.67C17.06 31.67 13.06 27.59 13.06 22.55C13.06 17.52 17.06 13.44 21.98 13.44C26.91 13.44 30.91 17.52 30.91 22.55C30.91 27.59 26.91 31.67 21.98 31.67" />
				</g>
			</g>
		</g>
	</g>
</svg>