<svg xmlns="http://www.w3.org/2000/svg" viewBox="0 0 44 42" width="44" height="42">
	<style>
		tspan { white-space:pre }
		.shp0 { fill: #ffe600 } 
	</style>
	<g id="Services">
		<g id="How We Do It">
			<g id="Progress">
				<g id="Working">
					<path id="Icon" class="shp0" d="M43.36 33.54L30.37 20.55C29.57 19.75 28.25 19.75 27.45 20.55L26.48 21.53L18.55 13.61L31.92 0.03L18.19 0.03L11.66 6.72L11.09 5.95L8.01 5.99L8.04 8.94L8.74 9.64L-0.13 18.51L6.76 25.4L15.63 16.53L23.55 24.45L22.58 25.42C21.77 26.23 21.77 27.54 22.58 28.35L35.56 41.33C36.37 42.13 37.68 42.13 38.48 41.33L43.35 36.46C44.16 35.66 44.16 34.34 43.36 33.54" />
				</g>
			</g>
		</g>
	</g>
</svg>