<svg xmlns="http://www.w3.org/2000/svg" viewBox="0 0 140 42" width="140" height="42">
	<style>
		tspan { white-space:pre }
		.shp0 { fill: #707070 } 
	</style>
	<g id="Clients">
		<g id="Logo Set">
			<path id="Logo 2" class="shp0" d="M46.4 -0.05L39.79 -0.05L39.66 0.59L36.22 17.67C36.03 18.65 35.78 19.48 35.49 20.14C35.21 20.76 34.86 21.28 34.46 21.68C34.06 22.06 33.61 22.33 33.09 22.51C32.53 22.69 31.88 22.78 31.16 22.78C30.56 22.78 30.05 22.72 29.64 22.6C29.28 22.49 29.01 22.35 28.83 22.16C28.63 21.96 28.49 21.72 28.39 21.43C28.29 21.09 28.23 20.68 28.23 20.21C28.23 19.63 28.31 18.94 28.46 18.16L31.89 0.91L32.09 -0.05L25.49 -0.05L25.37 0.59L21.95 17.71C21.71 18.78 21.59 19.81 21.59 20.76C21.59 21.9 21.75 22.94 22.07 23.87C22.4 24.84 22.95 25.7 23.72 26.39C24.47 27.07 25.44 27.6 26.59 27.96C27.7 28.3 29.03 28.48 30.53 28.48C32.16 28.48 33.66 28.27 34.98 27.87C36.35 27.45 37.57 26.8 38.6 25.93C39.63 25.07 40.51 23.96 41.2 22.64C41.88 21.34 42.4 19.79 42.75 18.04L46.2 0.91L46.4 -0.05ZM22.99 -0.05L6.8 -0.05L6.67 0.59L5.84 4.7L5.65 5.66L15.21 5.66L12.68 18.27C12.49 19.14 12.24 19.87 11.92 20.44C11.61 20.99 11.26 21.43 10.87 21.75C10.48 22.07 10.07 22.31 9.66 22.44C9.23 22.58 8.84 22.66 8.48 22.66C8.04 22.66 7.64 22.61 7.28 22.52C6.93 22.43 6.59 22.3 6.28 22.14C5.98 21.99 5.7 21.81 5.44 21.6C5.17 21.39 4.93 21.17 4.71 20.94L4.08 20.28L3.51 21L0.74 24.52L0.32 25.06L0.78 25.56C1.21 26.01 1.7 26.42 2.25 26.78C2.79 27.12 3.38 27.42 4.02 27.67C4.64 27.91 5.31 28.1 5.99 28.22C6.68 28.35 7.4 28.42 8.12 28.42C9.63 28.42 11.02 28.2 12.24 27.76C13.46 27.33 14.54 26.72 15.46 25.96C16.38 25.19 17.15 24.28 17.76 23.24C18.36 22.21 18.8 21.07 19.04 19.86L22.8 0.91L22.99 -0.05ZM66.88 7.48C66.88 6.51 66.7 5.57 66.34 4.67C65.97 3.74 65.36 2.91 64.54 2.2C63.74 1.51 62.68 0.95 61.4 0.55C60.15 0.16 58.61 -0.05 56.83 -0.05L48.68 -0.05L48.55 0.59L43.25 27.06L43.06 28.01L49.66 28.01L49.78 27.37L51.34 19.51L53.47 19.51C55.7 19.51 57.68 19.18 59.35 18.52C61.03 17.86 62.44 16.97 63.55 15.85C64.67 14.74 65.51 13.43 66.06 11.98C66.61 10.54 66.88 9.02 66.88 7.48ZM59.6 10.41C59.32 11.08 58.93 11.67 58.44 12.17C57.94 12.66 57.33 13.06 56.61 13.35C55.89 13.64 55.07 13.79 54.16 13.79L52.46 13.79L54.1 5.68L56.22 5.68C57.08 5.68 57.77 5.76 58.28 5.92C58.76 6.08 59.13 6.27 59.38 6.5C59.62 6.72 59.78 6.96 59.86 7.23C59.96 7.55 60.02 7.89 60.02 8.24C60.02 9.01 59.88 9.74 59.6 10.41ZM137.21 12.53C137.9 11.72 138.42 10.8 138.77 9.78C139.12 8.77 139.3 7.67 139.3 6.52C139.3 5.34 139.07 4.32 138.62 3.47C138.16 2.62 137.51 1.92 136.67 1.39C135.86 0.89 134.89 0.51 133.77 0.28C132.7 0.06 131.5 -0.05 130.2 -0.05L121.97 -0.05L121.84 0.59L116.54 27.06L116.35 28.01L122.95 28.01L123.07 27.37L125.11 17.06L125.23 17.06C125.64 17.06 126.01 17.11 126.32 17.2C126.59 17.29 126.83 17.44 127.06 17.67C127.3 17.92 127.53 18.29 127.74 18.77C127.98 19.3 128.19 19.98 128.38 20.81L130 27.41L130.14 28.01L137.41 28.01L137.13 27L135.31 20.43C135.05 19.54 134.79 18.76 134.55 18.1C134.31 17.44 134.05 16.85 133.78 16.35C133.55 15.95 133.31 15.6 133.05 15.29C133.66 15.1 134.22 14.85 134.74 14.56C135.71 14.02 136.54 13.33 137.21 12.53ZM132.1 9.29C131.87 9.77 131.54 10.17 131.1 10.5C130.64 10.85 130.07 11.11 129.4 11.29C128.69 11.48 127.89 11.58 127.01 11.58L126.22 11.58L127.39 5.7L129.15 5.7C130.72 5.7 131.48 5.98 131.83 6.22C132.1 6.39 132.46 6.73 132.46 7.6C132.46 8.24 132.34 8.81 132.1 9.29ZM69.56 5.64L66.19 22.33L65.01 28.01L71.71 28.01L72.87 22.33L76.21 5.64L77.44 -0.05L70.68 -0.05L69.56 5.64ZM117.22 11.69L117.4 10.75L110.5 10.75L110.32 11.69L109.53 15.8L109.41 16.45L116.31 16.45L116.43 15.8L117.22 11.69ZM105.95 16.45L107.06 10.75L108.07 5.76L118.91 5.76L119.04 5.12L119.9 0.91L120.1 -0.05L102.59 -0.05L102.59 -0.05L79.22 -0.05L79.09 0.59L78.22 4.74L78.06 5.63L85.28 5.63L81.03 27.06L80.84 28.01L87.55 28.01L87.68 27.37L91.98 5.7L101.44 5.7L97.17 27.06L96.97 28.02L114.48 28.02L114.61 27.37L115.44 23.16L115.63 22.21L104.79 22.21L105.95 16.45ZM21.87 41.83L23.07 35.84L24.59 35.84C25.36 35.84 25.94 36 26.34 36.33C26.73 36.66 26.93 37.17 26.93 37.86C26.93 37.98 26.92 38.13 26.91 38.31C26.89 38.5 26.86 38.69 26.82 38.89C26.77 39.11 26.71 39.32 26.63 39.55C26.56 39.78 26.45 40 26.33 40.22C26.2 40.44 26.05 40.64 25.87 40.84C25.69 41.03 25.47 41.21 25.22 41.35C24.98 41.5 24.69 41.62 24.37 41.7C24.05 41.79 23.69 41.83 23.28 41.83L21.87 41.83ZM26.08 37.9C26.08 37.65 26.04 37.44 25.98 37.27C25.91 37.09 25.81 36.95 25.68 36.84C25.55 36.73 25.38 36.65 25.18 36.6C24.98 36.55 24.75 36.52 24.49 36.52L23.75 36.52L22.83 41.13L23.39 41.13C23.69 41.13 23.96 41.09 24.19 41.02C24.43 40.95 24.64 40.85 24.82 40.73C25 40.61 25.16 40.47 25.29 40.31C25.43 40.15 25.54 39.99 25.63 39.81C25.73 39.63 25.8 39.45 25.86 39.27C25.92 39.08 25.97 38.91 26 38.74C26.03 38.57 26.05 38.41 26.06 38.26C26.07 38.12 26.08 38 26.08 37.9ZM34.92 41.83L31.49 41.83L32.7 35.84L36.13 35.84L35.99 36.52L33.38 36.52L33 38.38L35.5 38.38L35.37 39.07L32.87 39.07L32.45 41.14L35.06 41.14L34.92 41.83ZM44.86 35.84L41.6 41.83L40.5 41.83L39.7 35.84L40.59 35.84L41.08 39.88L41.2 41.06L41.83 39.88L43.94 35.84L44.86 35.84ZM50.74 41.83L47.31 41.83L48.52 35.84L51.95 35.84L51.81 36.52L49.2 36.52L48.82 38.38L51.33 38.38L51.2 39.07L48.69 39.07L48.28 41.14L50.88 41.14L50.74 41.83ZM59 41.83L55.53 41.83L56.74 35.84L57.57 35.84L56.5 41.14L59.14 41.14L59 41.83ZM64.89 41.92C64.27 41.92 63.81 41.74 63.5 41.39C63.19 41.04 63.04 40.54 63.04 39.9C63.04 39.59 63.07 39.27 63.12 38.95C63.18 38.62 63.26 38.3 63.38 38C63.49 37.69 63.63 37.4 63.8 37.13C63.97 36.86 64.16 36.62 64.39 36.42C64.62 36.21 64.87 36.05 65.16 35.93C65.44 35.81 65.76 35.75 66.1 35.75C66.72 35.75 67.18 35.93 67.48 36.28C67.79 36.63 67.94 37.13 67.94 37.77C67.94 38.08 67.92 38.4 67.86 38.73C67.81 39.05 67.72 39.37 67.61 39.68C67.5 39.98 67.36 40.27 67.19 40.55C67.02 40.82 66.82 41.05 66.6 41.26C66.37 41.46 66.11 41.62 65.83 41.74C65.54 41.86 65.23 41.92 64.89 41.92ZM67.1 37.83C67.1 37.62 67.08 37.44 67.04 37.27C67 37.1 66.93 36.96 66.85 36.84C66.76 36.72 66.64 36.63 66.51 36.56C66.37 36.5 66.2 36.46 66.01 36.46C65.76 36.46 65.54 36.52 65.33 36.63C65.13 36.75 64.95 36.9 64.79 37.08C64.63 37.27 64.5 37.48 64.38 37.72C64.27 37.95 64.18 38.2 64.1 38.44C64.03 38.69 63.97 38.94 63.94 39.18C63.9 39.43 63.89 39.65 63.89 39.84C63.89 40.05 63.91 40.24 63.95 40.4C63.99 40.57 64.05 40.71 64.14 40.83C64.23 40.95 64.34 41.04 64.48 41.11C64.62 41.17 64.78 41.21 64.98 41.21C65.23 41.21 65.45 41.15 65.66 41.04C65.86 40.93 66.04 40.78 66.2 40.59C66.36 40.41 66.49 40.2 66.61 39.96C66.72 39.72 66.81 39.48 66.89 39.23C66.96 38.98 67.02 38.73 67.05 38.49C67.09 38.25 67.1 38.03 67.1 37.83ZM72.36 39.68L71.92 41.83L71.1 41.83L72.3 35.84L73.96 35.84C74.23 35.84 74.49 35.87 74.73 35.92C74.97 35.98 75.17 36.07 75.35 36.19C75.53 36.3 75.67 36.46 75.77 36.64C75.87 36.83 75.92 37.05 75.92 37.31C75.92 37.5 75.9 37.69 75.85 37.88C75.79 38.08 75.71 38.26 75.61 38.43C75.5 38.61 75.38 38.77 75.22 38.92C75.06 39.08 74.89 39.21 74.68 39.32C74.48 39.43 74.25 39.52 73.99 39.59C73.73 39.65 73.45 39.68 73.15 39.68L72.36 39.68ZM75.06 37.39C75.06 37.11 74.96 36.9 74.76 36.75C74.56 36.6 74.26 36.52 73.86 36.52L72.99 36.52L72.49 38.99L73.22 38.99C73.46 38.99 73.68 38.97 73.86 38.92C74.05 38.87 74.21 38.8 74.35 38.72C74.49 38.63 74.6 38.53 74.69 38.43C74.78 38.32 74.85 38.21 74.91 38.08C74.96 37.97 75 37.85 75.03 37.73C75.05 37.6 75.06 37.49 75.06 37.39ZM84.32 41.83L83.52 41.83L84.15 38.09L84.39 36.66L83.93 37.49L82.57 39.88L82.01 39.88L81.61 37.58L81.52 36.66L81.2 38.16L80.36 41.83L79.58 41.83L81.08 35.84L82.01 35.84L82.37 38.09L82.48 38.86L82.9 38.09L84.2 35.84L85.24 35.84L84.32 41.83ZM92.69 41.83L89.26 41.83L90.47 35.84L93.9 35.84L93.76 36.52L91.15 36.52L90.77 38.38L93.28 38.38L93.14 39.07L90.64 39.07L90.22 41.14L92.83 41.14L92.69 41.83ZM99.8 41.83L98.77 41.83L97.77 38.09L97.49 36.89L96.89 39.91L96.5 41.83L95.74 41.83L96.95 35.84L97.97 35.84L98.92 39.38L99.25 40.75L99.89 37.54L100.24 35.84L101.01 35.84L99.8 41.83ZM109.11 36.53L107.33 36.53L106.27 41.83L105.44 41.83L106.5 36.53L104.72 36.53L104.86 35.84L109.26 35.84L109.11 36.53Z" />
		</g>
	</g>
</svg>