<svg xmlns="http://www.w3.org/2000/svg" viewBox="0 0 146 36" width="146" height="36">
	<style>
		tspan { white-space:pre }
		.shp0 { fill: #707070 } 
	</style>
	<g id="Clients">
		<g id="Logo Set">
			<path id="Logo 5" class="shp0" d="M72.25 30.99L67.7 30.96L62.01 31C62.01 30.55 61.99 29.69 62 29.24C62.01 28.78 62.04 28.4 62.05 27.98L64.28 27.97L64.29 27.97C64.35 27.97 64.98 27.93 64.98 27.39L65.04 26.55C65 22.42 64.99 18.59 65.01 13.74L65 12.95L64.22 12.99L63.89 12.99L63.6 12.99L63.5 13.26C61.12 20.09 59.11 24.65 57.26 28.97C57.01 28.98 56.69 28.98 56.32 28.99C55.68 29 54.9 28.98 54.21 28.98C52.14 24.03 50.76 20.75 48.57 14.13L48.17 12.98L47.78 12.98L47.41 12.98L47 12.94L46.96 13.41C46.9 17.11 47.03 19.22 46.99 20.99C46.95 23.17 47.03 25.33 46.99 27.51L47.05 27.97L47.66 27.99L50.03 28.04C50.03 28.9 49.97 30.1 49.94 30.98L44.61 31.01L40 31.01L40.03 28.04L42.57 27.97L42.65 27.97L42.73 27.93C43.02 27.78 43.08 27.56 43.08 27.39C43.12 21.84 42.92 15.31 43.01 9.11L43.04 7.96L42.55 8.01L40.99 7.96C40.99 7.48 41.03 6.53 41.04 6.02C41.04 5.53 41.02 4.52 41.02 4.06L50.96 4.02C52.17 7.31 54.38 15.1 56.18 20.41L56.48 21.3L56.58 21.58L56.87 21.58L57.2 21.58L57.49 21.58L57.59 21.3C58.37 19.1 59.2 16.73 60.02 14.38C61.25 10.88 62.97 6.81 63.98 3.99L72.99 4.02C72.99 4.48 73.01 5.63 73.01 6.11C73 6.62 72.99 7.44 72.98 7.93L70.47 7.93L70.4 7.97C70.12 7.97 69.92 8.59 69.92 8.91C69.95 11.99 69.99 14.68 70 18.11C70.01 21.31 69.99 23.03 70.01 26.05L70.04 27.98L70.59 27.97L73.01 27.97C73.01 28.83 73.01 30.08 72.99 30.96L72.25 30.99ZM99.92 30.96L95.6 31L89.01 31C89.01 30.09 88.98 28.93 89 28.03L90.97 27.93C91.11 27.93 91.28 27.84 91.38 27.7C91.49 27.55 91.52 27.36 91.46 27.18C91.38 26.96 91.29 26.66 91.19 26.33C91 25.7 90.79 25 90.62 24.58C90.58 24.4 90.41 23.96 89.95 23.96L82.31 23.98L81.98 24.2L81.91 24.52C81.83 24.88 81.73 25.28 81.63 25.69C81.47 26.31 81.31 26.95 81.21 27.48L81.12 27.94L81.59 27.97L83.98 28.03C83.98 28.91 83.94 30.1 83.92 31L78.1 31L73.99 31C74 30.1 74.1 28.91 74.14 28.03L75.98 27.97C76.22 27.97 76.5 27.76 76.59 27.48C79.23 20.44 82.84 10.27 85.13 4.03C85.96 3.97 87.7 4 90.19 4C91.52 7.86 93.09 12.91 94.61 17.47C95.84 21.14 97.02 24.71 98.03 27.65L98.11 27.91L98.38 27.93L100.03 28.06C100.03 28.94 100.01 29.52 99.99 30.41L99.92 30.96ZM85.89 11.24L85.8 11.53C85.23 13.39 84.63 15.33 84.07 17.2L83.28 19.02C83.24 19.16 82.9 21.1 83.06 21.3L83.09 21L83.63 21L88.94 21L89.62 21.03L88.95 18.99C88.36 17.13 88.41 16.94 87.75 14.72C87.43 13.66 87.11 12.59 86.79 11.53L86.7 11.24L86.4 11.24L86.2 11.24L85.89 11.24L85.89 11.24ZM117.21 29.47C116.27 27.75 115.38 25.52 114.46 23.32L114.09 22.46C113.52 21.09 112.98 19.95 111.79 19.95C111.3 19.95 110.6 19.89 110.4 19.96L110.13 20.62L110 20.91L109.95 27.47L110.08 27.99L110.47 28.01L112.98 27.99C112.96 28.88 112.96 30.09 112.96 30.98L106.87 31.01L102.05 30.95C102.07 30.06 102.04 28.88 102.04 27.99L103.62 28.01C103.92 28.01 104.13 27.74 104.13 27.48L103.95 9.96L103.98 8L103.68 7.98L102.03 7.95C102.03 7.02 102.01 4.9 102.03 4C105.63 3.95 108.57 3.99 111.11 3.99C113.42 3.99 114.69 4.55 117.09 5.12C120.54 5.88 122.95 9 122.95 11.44C122.95 14.5 120.9 16.96 117.81 18.25L117.55 18.36L117.55 18.63L117.55 18.88L117.55 19.14L117.78 19.25C119.31 19.98 120.24 21.93 121.77 25.14L122.26 26.16C122.67 27.09 123.04 27.82 123.83 27.89L124.91 28.06C124.91 28.49 124.99 29 124.98 29.44C124.97 29.89 124.96 30.5 124.96 30.95C124.64 30.95 124.68 30.93 124.3 30.93C123.73 30.94 123.5 30.96 123.11 30.96C122.63 30.96 121.4 30.97 120.27 30.98C119.4 30.99 118.52 30.93 118.05 30.94L117.21 29.47ZM111.93 7.09C111.22 7.09 110.8 7.13 110.49 7.23L110.21 7.32L109.92 7.65L110 17.3L110.12 17.75L110.44 17.98C110.65 18.04 111.03 18.04 111.65 18.04C114.56 18.04 116.39 15.83 116.39 12.77C116.39 9.59 114.44 7.09 111.93 7.09L111.93 7.09ZM134.16 30.92C132.73 30.92 129.87 31.02 128.12 30.45C127.83 28.21 127.58 26 127.33 23.83L127.06 23.36C128.28 23.1 129.77 22.88 130.87 22.73L131.93 26.51C132.03 26.82 132.17 27.03 132.36 27.13C133.14 27.68 134.15 28 135.3 28C136.28 28 137.62 27.73 138.44 27.04C139.19 26.45 139.59 25.56 139.59 24.49C139.59 22.09 138.26 21.6 135.07 20.4C130.34 18.62 127.94 15.99 127.94 12.61C127.94 9.59 129.62 7.63 130.61 6.73C132.42 5.08 135.44 3.99 139.13 3.99C141.47 3.99 143.34 4.49 144.24 4.8C144.46 7.09 144.87 9.46 145.03 11.79C143.99 11.95 142.6 12.05 141.46 12.18L141.3 12.2L140.44 8.69C140.38 8.51 140.32 8.35 140.17 8.2C139.57 7.7 138.7 7.08 137.81 7.08C136.74 7.08 135.82 7.7 135.09 8.25C134.7 8.55 133.81 9.41 133.81 10.95C133.81 13.31 134.93 13.81 138.8 15.16C143.46 16.77 145.45 18.98 145.45 22.57C145.45 25.13 144.4 27.43 142.56 28.89C140.6 30.45 138.1 30.92 134.29 30.92L134.16 30.92ZM15.82 7.58C15.82 11.79 12.43 15.2 8.25 15.2C4.07 15.2 0.68 11.79 0.68 7.58C0.68 3.38 4.07 -0.03 8.25 -0.03C12.43 -0.03 15.82 3.38 15.82 7.58ZM15.82 27.77C15.82 31.97 12.43 35.39 8.25 35.39C4.07 35.39 0.68 31.97 0.68 27.77C0.68 23.56 4.07 20.15 8.25 20.15C12.43 20.15 15.82 23.56 15.82 27.77ZM32.3 17.68C32.3 21.88 28.9 25.29 24.72 25.29C20.54 25.29 17.15 21.88 17.15 17.68C17.15 13.47 20.54 10.06 24.72 10.06C28.9 10.06 32.3 13.47 32.3 17.68Z" />
		</g>
	</g>
</svg>