<svg xmlns="http://www.w3.org/2000/svg" viewBox="0 0 164 40" width="164" height="40">
	<style>
		tspan { white-space:pre }
		.shp0 { fill: #707070 } 
	</style>
	<g id="Clients">
		<g id="Logo Set">
			<path id="Logo 4" class="shp0" d="M60.49 9.99C59.67 9.64 58.76 8.99 57.86 8.99C56.97 8.99 56.19 9.59 55.47 9.86C54.16 10.35 53.09 11.09 52.29 12.08C51.79 11.42 51.19 10.86 50.49 10.43C49.44 9.79 48.31 8.99 47.08 8.99C45.39 8.99 43.95 9.93 42.83 10.86L42.83 10.48L42.89 10L42 10.03L39.79 10L38.96 10.12L39.02 10.85L38.99 26.89L39.05 27.98L39.6 28.02L42.06 27.96L42.96 27.93L42.96 26.73L43.02 17.02C43.02 15.8 43.18 14.85 43.91 14.16C44.6 13.5 45.44 13.18 46.49 13.18C47.46 13.18 48.23 13.5 48.83 14.15C49.48 14.88 50.01 15.76 50.01 16.92L50.07 26.7L50.07 27.93L50.53 27.99L52.99 27.96L53.97 27.96L53.97 26.67L53.79 16.99C53.79 15.77 54.14 14.85 54.87 14.16C55.56 13.5 56.4 13.18 57.45 13.18C58.41 13.18 59.18 13.5 59.79 14.15C60.44 14.88 61 15.8 61 16.95L60.97 26.67L60.97 27.84L61.02 27.9L64.04 27.96L65.06 28.02L64.99 26.23L64.93 16.7C64.93 14.57 64.05 12.95 62.69 11.51C62.05 10.85 61.31 10.34 60.49 9.99ZM74.59 8.96C71.93 8.96 69.76 10.36 68.08 12.13C66.51 13.83 65.97 15.99 65.97 18.57C65.97 21.16 66.51 23.32 68.09 25.02C69.76 26.79 71.96 27.97 74.62 27.97C77.28 27.97 79.47 26.79 81.15 25.02C82.72 23.32 82.96 21.09 82.96 18.51C82.96 15.93 82.72 13.83 81.15 12.13C79.47 10.36 77.25 8.96 74.59 8.96ZM78.23 22.43C77.35 23.47 76.16 23.97 74.62 23.97C73.07 23.97 71.89 23.47 71 22.43C70.13 21.41 69.02 20.21 69.02 18.64C69.02 17.06 70.13 15.74 71.01 14.72C71.89 13.68 73.04 12.96 74.59 12.96C76.13 12.96 77.35 13.68 78.23 14.73C79.1 15.74 80.03 17.03 80.03 18.61C80.03 20.18 79.1 21.41 78.23 22.43ZM93.44 8.96C90.78 8.96 88.58 10.36 86.9 12.13C85.33 13.83 85 15.99 85 18.57C85 21.16 85.33 23.32 86.91 25.02C88.58 26.79 90.75 27.97 93.41 27.97C96.07 27.97 98.29 26.79 99.97 25.02C101.54 23.32 101.96 21.19 101.96 18.61C101.96 16.02 101.54 13.83 99.97 12.13C98.29 10.36 96.1 8.96 93.44 8.96ZM97.05 22.43C96.17 23.47 94.98 23.97 93.44 23.97C91.89 23.97 90.71 23.47 89.82 22.43C88.95 21.41 87.97 20.15 87.97 18.57C87.97 16.99 88.95 15.74 89.83 14.72C90.71 13.68 91.89 12.99 93.44 12.99C94.98 12.99 96.17 13.68 97.05 14.73C97.92 15.74 99 16.99 99 18.57C99 20.15 97.92 21.41 97.05 22.43ZM115.01 9.96C114.14 9.63 113.1 8.99 111.92 8.99C110.68 8.99 109.56 9.77 108.58 10.39C108.24 10.61 108.25 10.82 107.94 11.08L108.01 9.01L107.91 8.97L106.99 9L104.96 9L104.07 9.06L104.01 11.13L104.04 26.92L103.98 27.93L105.15 27.96L106.89 27.93L107.88 27.93L107.94 26.64L107.97 17.37C107.97 16.13 108 15.11 108.8 14.33C109.63 13.55 110.6 12.99 111.79 12.99C112.93 12.99 113.83 13.54 114.54 14.27C115.26 15.02 115.99 16.01 115.99 17.31L115.99 26.8L116.02 27.93L116.03 27.96L119.06 27.87L120.01 27.9L120.04 26.2L120.01 16.68C120.01 14.32 118.84 12.95 117.36 11.51C116.69 10.82 115.9 10.3 115.01 9.96ZM130.24 8.99C128.19 8.99 126.36 10.08 125.02 11.17L124.95 10.35L124.99 9.03L124.37 9L121.91 9L120.99 9L120.99 10.76L120.99 33.15L120.99 34.03L121.94 34L124.53 33.94L124.92 33.97L124.95 32.84L124.92 25.99C126.25 27.1 128.12 27.97 130.08 27.97C132.77 27.97 134.95 26.79 136.55 25.01C138.14 23.28 138.98 21.11 138.98 18.57C138.98 16.04 138.14 13.87 136.56 12.14C134.95 10.36 132.82 8.99 130.24 8.99ZM126.3 22.43C125.43 21.41 125.01 20.15 125.01 18.57C125.01 16.99 125.43 15.74 126.3 14.72C127.19 13.68 128.37 12.96 129.92 12.96C131.45 12.96 132.66 13.69 133.61 14.74C134.51 15.75 134.96 17 134.96 18.57C134.96 20.15 134.51 21.4 133.61 22.41C132.66 23.46 131.45 23.97 129.92 23.97C128.37 23.97 127.19 23.47 126.3 22.43ZM141.77 10L141.04 9.97L141.01 12.48L141.04 26.2L141.01 26.93L141.74 26.99L143.42 27.02L143.97 26.96L143.97 24.33L143.97 12.7L143.97 10.06L143.8 9.97L141.77 10ZM141.61 3.98L141.03 3.98L141.03 4.92L141.03 7.1L141.03 7.98L141.58 7.95L143.24 8.04L144.04 8.01L143.94 6.75L143.98 4.55L143.98 4.1L143.92 4.07L141.61 3.98ZM160.23 21.02L159.48 21.05L159.48 21.31C159.16 22.11 158.67 22.74 157.97 23.24C157.29 23.73 156.53 23.97 155.63 23.97C153.93 23.97 152.63 23.46 151.68 22.41C150.73 21.38 149.99 20.12 149.99 18.57C149.99 17.03 150.73 15.78 151.68 14.74C152.11 14.26 152.65 13.87 153.28 13.6C153.91 13.32 154.7 13.18 155.63 13.18C156.52 13.18 157.29 13.41 157.97 13.91C158.67 14.41 159.16 15.04 159.48 15.84L159.58 16.04L160.16 16.01L162.85 16.01L163.86 15.98L163.59 15.34C163.03 13.59 162.01 12.16 160.54 11.09C159.02 10.01 157.1 8.96 155.02 8.96C152.4 8.96 150.33 10.36 148.67 12.13C147.08 13.84 145.99 16.01 145.99 18.57C145.99 21.13 147.08 23.3 148.68 25.02C150.33 26.79 152.49 27.94 155.11 27.94C157.19 27.94 159.02 27.14 160.55 26.05C162.01 24.99 163.03 23.56 163.59 21.81L163.99 21.02L162.85 20.95L160.23 21.02ZM131.94 37.39C131.62 37.76 131.24 37.95 130.81 37.95C130.55 37.95 130.31 37.9 130.11 37.8C129.91 37.7 129.74 37.57 129.6 37.39C129.46 37.22 129.35 37.01 129.28 36.76C129.21 36.51 129.18 36.24 129.18 35.94C129.18 35.62 129.22 35.33 129.31 35.07C129.39 34.81 129.51 34.59 129.66 34.42C129.81 34.24 129.99 34.1 130.19 34C130.39 33.91 130.61 33.86 130.85 33.86C131.06 33.86 131.26 33.89 131.44 33.96C131.62 34.03 131.79 34.12 131.94 34.25L131.94 32.47L132.64 32.47L132.64 37.85L131.94 37.85L131.94 37.39ZM131.94 36.73L131.94 34.88C131.62 34.56 131.28 34.41 130.89 34.41C130.59 34.41 130.35 34.53 130.17 34.79C129.99 35.04 129.9 35.43 129.9 35.94C129.9 36.42 129.99 36.78 130.16 37.03C130.33 37.28 130.56 37.4 130.86 37.4C131.06 37.4 131.25 37.35 131.42 37.23C131.6 37.12 131.78 36.95 131.94 36.73ZM138.39 37.95C138.1 37.95 137.84 37.9 137.6 37.81C137.37 37.72 137.16 37.58 136.99 37.41C136.83 37.23 136.69 37.02 136.6 36.77C136.51 36.51 136.46 36.23 136.46 35.9C136.46 35.59 136.51 35.3 136.6 35.05C136.69 34.8 136.82 34.58 136.98 34.41C137.14 34.23 137.33 34.1 137.56 34C137.79 33.91 138.04 33.86 138.31 33.86C138.6 33.86 138.85 33.91 139.08 34C139.31 34.09 139.51 34.23 139.67 34.4C139.83 34.58 139.95 34.79 140.04 35.04C140.13 35.29 140.17 35.58 140.17 35.9L140.17 36.07L137.2 36.07C137.21 36.3 137.25 36.49 137.32 36.66C137.38 36.82 137.47 36.96 137.57 37.07C137.68 37.18 137.8 37.26 137.94 37.32C138.08 37.37 138.23 37.4 138.39 37.4C138.51 37.4 138.62 37.38 138.74 37.35C138.85 37.32 138.96 37.28 139.05 37.22C139.14 37.16 139.21 37.08 139.27 37C139.33 36.91 139.36 36.8 139.36 36.69L140.1 36.69C140.07 36.89 140.01 37.07 139.91 37.23C139.81 37.38 139.68 37.51 139.54 37.62C139.38 37.73 139.21 37.81 139.02 37.86C138.82 37.92 138.61 37.95 138.39 37.95ZM139.43 35.52C139.37 35.15 139.24 34.87 139.04 34.69C138.84 34.5 138.6 34.41 138.31 34.41C138.17 34.41 138.04 34.43 137.92 34.48C137.79 34.52 137.68 34.59 137.59 34.68C137.49 34.78 137.41 34.89 137.34 35.03C137.28 35.17 137.23 35.34 137.2 35.52L139.43 35.52ZM144.94 37.95C143.87 37.95 143.31 37.53 143.25 36.69L143.95 36.69C143.95 37.16 144.28 37.4 144.93 37.4C145.08 37.4 145.21 37.38 145.32 37.35C145.43 37.32 145.53 37.28 145.6 37.22C145.67 37.17 145.73 37.1 145.77 37.03C145.81 36.95 145.83 36.87 145.83 36.78C145.83 36.69 145.81 36.61 145.79 36.56C145.76 36.5 145.7 36.45 145.61 36.41C145.53 36.36 145.41 36.32 145.27 36.28C145.12 36.23 144.92 36.18 144.68 36.12C144.45 36.06 144.25 36 144.08 35.95C143.91 35.89 143.77 35.82 143.66 35.74C143.55 35.66 143.47 35.56 143.42 35.44C143.37 35.32 143.34 35.17 143.34 34.99C143.34 34.83 143.37 34.68 143.44 34.54C143.51 34.4 143.61 34.28 143.74 34.18C143.87 34.08 144.02 34 144.2 33.95C144.39 33.89 144.59 33.86 144.81 33.86C145.85 33.86 146.38 34.23 146.39 34.95L145.7 34.95C145.67 34.59 145.4 34.41 144.87 34.41C144.75 34.41 144.64 34.42 144.54 34.44C144.44 34.46 144.35 34.5 144.27 34.54C144.2 34.58 144.14 34.64 144.1 34.7C144.06 34.77 144.04 34.84 144.04 34.92C144.04 35 144.05 35.06 144.07 35.11C144.09 35.16 144.13 35.21 144.21 35.25C144.28 35.29 144.39 35.33 144.53 35.37C144.67 35.41 144.87 35.46 145.12 35.52C145.36 35.58 145.56 35.64 145.74 35.7C145.92 35.76 146.06 35.84 146.18 35.92C146.3 36.01 146.39 36.12 146.44 36.24C146.5 36.37 146.52 36.52 146.52 36.71C146.52 36.89 146.49 37.05 146.42 37.2C146.34 37.35 146.23 37.48 146.1 37.59C145.96 37.7 145.8 37.79 145.6 37.85C145.4 37.92 145.19 37.95 144.94 37.95ZM150.39 33.22L149.7 33.22L149.7 32.47L150.39 32.47L150.39 33.22ZM150.39 37.85L149.7 37.85L149.7 33.96L150.39 33.96L150.39 37.85ZM157.33 37.55C157.33 38.81 156.75 39.44 155.61 39.44C155.36 39.44 155.14 39.41 154.94 39.35C154.74 39.3 154.57 39.22 154.43 39.12C154.29 39.02 154.19 38.9 154.11 38.75C154.04 38.6 154 38.43 154 38.25L154.73 38.25C154.73 38.68 155.01 38.9 155.59 38.9C155.75 38.9 155.9 38.87 156.03 38.83C156.16 38.8 156.27 38.72 156.36 38.62C156.45 38.52 156.51 38.39 156.56 38.22C156.61 38.05 156.63 37.84 156.63 37.58L156.63 37.39C156.31 37.76 155.93 37.95 155.5 37.95C155.23 37.95 155 37.9 154.8 37.8C154.6 37.7 154.43 37.57 154.29 37.39C154.15 37.22 154.04 37.01 153.97 36.76C153.9 36.51 153.87 36.24 153.87 35.94C153.87 35.62 153.91 35.33 154 35.07C154.08 34.81 154.2 34.59 154.35 34.42C154.5 34.24 154.68 34.1 154.88 34C155.08 33.91 155.3 33.86 155.54 33.86C155.75 33.86 155.95 33.89 156.13 33.96C156.31 34.03 156.47 34.12 156.63 34.25L156.63 33.96L157.33 33.96L157.33 37.55ZM156.63 36.73L156.63 34.88C156.31 34.56 155.96 34.41 155.58 34.41C155.28 34.41 155.04 34.53 154.86 34.79C154.68 35.04 154.6 35.43 154.6 35.94C154.6 36.42 154.68 36.78 154.85 37.03C155.02 37.28 155.25 37.4 155.55 37.4C155.75 37.4 155.94 37.35 156.12 37.23C156.29 37.12 156.47 36.95 156.63 36.73ZM161.33 34.45C161.5 34.25 161.68 34.1 161.88 34.01C162.08 33.91 162.29 33.86 162.5 33.86C163.4 33.86 163.84 34.34 163.84 35.3L163.84 37.85L163.13 37.85L163.13 35.34C163.13 35.18 163.12 35.04 163.09 34.92C163.06 34.81 163.02 34.72 162.96 34.64C162.9 34.57 162.83 34.52 162.74 34.49C162.64 34.46 162.53 34.44 162.4 34.44C162.04 34.44 161.68 34.65 161.33 35.06L161.33 37.85L160.63 37.85L160.63 33.96L161.33 33.96L161.33 34.45ZM9.49 29.57C14.13 30.14 18.41 27.41 19.93 23.25C19.95 23.2 19.97 23.14 19.99 23.08C19.97 23.08 19.94 23.08 19.91 23.09C19.37 23.27 18.79 23.37 18.19 23.37C15.15 23.37 12.68 20.93 12.68 17.93C12.68 17.37 12.76 16.83 12.92 16.32C12.98 11.47 16.37 7.11 21.37 5.99C22.96 5.63 24.55 5.45 26.11 5.45C27.85 5.45 29.56 5.67 31.2 6.08C27.97 2.61 23.34 0.44 18.19 0.44C8.41 0.44 0.48 8.27 0.48 17.93C0.48 21.67 1.68 25.14 3.7 27.98C4.16 28.18 4.62 28.37 5.08 28.54C6.48 29.03 7.96 29.39 9.49 29.57ZM29.81 15.92C27.24 12.61 22.93 11.4 19.12 12.57C20.53 12.81 21.75 13.57 22.58 14.65C22.77 14.8 22.97 14.95 23.15 15.11C26.8 18.43 27.78 23.91 25.22 28.34C24.41 29.73 23.46 31.01 22.4 32.14C21.23 33.4 19.92 34.49 18.51 35.41C25.2 35.29 30.98 31.51 33.88 26.02C33.66 23.88 33.09 21.77 32.16 19.76C31.54 18.42 30.76 17.13 29.81 15.92ZM32.4 7.5C30.4 6.84 28.28 6.49 26.11 6.49C24.63 6.49 23.11 6.66 21.61 7C17.87 7.84 15.13 10.68 14.26 14.11C14.71 13.66 15.24 13.29 15.82 13.02C16.36 12.65 16.92 12.33 17.5 12.07C22.01 10.02 27.5 11.24 30.65 15.29C31.64 16.56 32.46 17.92 33.12 19.32C33.86 20.92 34.38 22.58 34.69 24.26C35.47 22.3 35.89 20.16 35.89 17.93C35.89 14.02 34.59 10.41 32.4 7.5ZM21.63 31.44C22.64 30.36 23.54 29.15 24.3 27.83C26.31 24.36 25.92 20.2 23.64 17.2C23.67 17.43 23.7 17.68 23.7 17.93C23.7 19.71 22.83 21.28 21.49 22.27C21.42 22.34 21.34 22.4 21.27 22.47C21.17 22.86 21.05 23.24 20.92 23.61C19.23 28.22 14.5 31.22 9.37 30.6C7.85 30.42 6.4 30.08 5.01 29.6C7.92 32.8 12.01 34.94 16.6 35.34C18.45 34.33 20.15 33.02 21.63 31.44Z" />
		</g>
	</g>
</svg>