<svg xmlns="http://www.w3.org/2000/svg" viewBox="0 0 151 42" width="151" height="42">
	<style>
		tspan { white-space:pre }
		.shp0 { fill: #707070 } 
	</style>
	<g id="Clients">
		<g id="Logo Set">
			<path id="Logo 3" class="shp0" d="M146.3 27.35C143.97 27.35 142.07 25.43 142.07 23.08C142.07 20.72 143.97 18.8 146.3 18.8C148.64 18.8 150.53 20.72 150.53 23.08C150.53 25.43 148.64 27.35 146.3 27.35ZM146.3 19.35C144.27 19.35 142.61 21.02 142.61 23.08C142.61 25.13 144.27 26.8 146.3 26.8C148.33 26.8 149.99 25.13 149.99 23.08C149.99 21.02 148.33 19.35 146.3 19.35ZM144.8 20.81C145.14 20.75 145.64 20.71 146.2 20.71C146.89 20.71 147.37 20.81 147.7 21.08C147.98 21.3 148.13 21.63 148.13 22.06C148.13 22.66 147.71 23.07 147.31 23.22L147.31 23.24C147.63 23.37 147.81 23.68 147.93 24.12C148.07 24.65 148.22 25.26 148.31 25.44L147.23 25.44C147.16 25.3 147.05 24.93 146.91 24.35C146.78 23.76 146.59 23.6 146.16 23.59L145.84 23.59L145.84 25.44L144.8 25.44L144.8 20.81ZM145.84 22.83L146.25 22.83C146.78 22.83 147.09 22.56 147.09 22.15C147.09 21.72 146.8 21.5 146.32 21.5C146.06 21.5 145.92 21.52 145.84 21.53L145.84 22.83ZM36.7 41.9C36.7 41.9 35.07 41.2 33.77 40.76C33.25 40.59 32.98 40.38 32.82 40.2C32.34 38.23 30.59 36.77 28.49 36.77C26.87 36.77 25.46 37.65 24.67 38.96L24.49 38.93C24.97 37.65 25.91 36.64 27.08 36.15C26.8 33.94 24.94 32.21 22.67 32.21C22.26 32.21 21.87 32.29 21.48 32.39C21.98 33.24 22.28 34.15 22.28 35.08C22.28 36.34 21.79 37.5 20.96 38.44C21.38 37.61 21.63 36.69 21.63 35.69C21.63 32.33 18.94 29.61 15.61 29.61C12.28 29.61 9.58 32.33 9.58 35.69C9.58 36.75 9.87 37.72 10.34 38.59C9.42 37.62 8.85 36.42 8.85 35.08C8.85 34.48 8.99 33.88 9.19 33.29C8.48 32.84 7.65 32.56 6.74 32.56C4.22 32.56 2.18 34.63 2.18 37.17C2.18 38.39 2.66 39.49 3.42 40.31C3.25 40.46 3.01 40.6 2.61 40.74C1.32 41.17 -0.31 41.87 -0.31 41.87L11.68 41.87L11.65 41.9L36.7 41.9ZM23.1 22.43C22.87 19.36 21.32 17.5 20 15.13C20.97 3.65 16.52 0.79 16.52 0.79C16.52 0.79 12.5 3.65 13.47 15.13C12.15 17.5 10.6 19.36 10.37 22.43C14.05 20.98 14.05 20.98 14.05 20.98C14.05 20.98 15.96 21.93 16.73 21.91L16.73 21.91L16.73 21.91L16.74 21.91L16.74 21.91C17.84 21.91 19.42 20.98 19.42 20.98C19.42 20.98 19.42 20.98 23.1 22.43ZM23.1 22.43C22.87 19.36 21.32 17.5 20 15.13C20.97 3.65 16.52 0.79 16.52 0.79C16.52 0.79 12.5 3.65 13.47 15.13C12.15 17.5 10.6 19.36 10.37 22.43C14.05 20.98 14.05 20.98 14.05 20.98C14.05 20.98 15.96 21.93 16.73 21.91L16.73 21.91L16.73 21.91L16.74 21.91L16.74 21.91C17.84 21.91 19.42 20.98 19.42 20.98C19.42 20.98 19.42 20.98 23.1 22.43ZM19.11 25.49L18.18 22.76C17.91 22.98 17.24 23.39 16.96 23.41C16.7 23.39 16 22.98 15.74 22.76L14.81 25.49L15.86 24.34L15.2 28.55L16.31 27.49L16.31 27.49C16.4 27.48 16.54 28.08 16.63 28.08C16.7 28.08 16.83 28.72 16.9 28.73C16.97 28.72 17.21 28.08 17.28 28.08C17.37 28.08 17.51 27.48 17.6 27.49L17.6 27.49L18.71 28.55L18.05 24.34L19.11 25.49ZM45.61 41.56L42.4 41.56L46.04 23.81L50.79 23.81C51.55 23.81 52.21 23.84 52.75 23.89C53.3 23.95 53.78 24.04 54.19 24.16C55.35 24.5 56.19 25.03 56.73 25.75C57.27 26.48 57.54 27.33 57.54 28.31C57.54 29.03 57.44 29.7 57.24 30.33C57.05 30.95 56.74 31.52 56.31 32.02C55.89 32.53 55.35 32.97 54.68 33.34C54.02 33.71 53.23 34 52.3 34.21L52.3 34.27L56.2 41.56L52.66 41.56L49.14 34.69L47.01 34.69L45.61 41.56ZM47.58 31.97L48.81 31.97C49.4 31.97 49.92 31.95 50.39 31.91C50.85 31.87 51.26 31.8 51.63 31.69C52.46 31.46 53.12 31.09 53.6 30.57C54.08 30.06 54.32 29.39 54.32 28.56C54.32 28.14 54.23 27.77 54.03 27.45C53.84 27.13 53.53 26.9 53.09 26.75C52.88 26.68 52.61 26.62 52.28 26.59C51.94 26.55 51.53 26.53 51.03 26.53L48.69 26.53L47.58 31.97ZM68.44 23.48C69.46 23.48 70.39 23.63 71.23 23.91C72.06 24.2 72.78 24.63 73.37 25.2C73.97 25.77 74.42 26.48 74.75 27.32C75.07 28.17 75.24 29.14 75.24 30.25C75.24 30.94 75.16 31.7 75.02 32.54C74.87 33.38 74.64 34.23 74.32 35.09C73.99 35.96 73.57 36.8 73.06 37.62C72.54 38.44 71.91 39.16 71.17 39.79C70.43 40.42 69.57 40.93 68.59 41.32C67.61 41.7 66.5 41.9 65.25 41.9C64.22 41.9 63.29 41.75 62.45 41.46C61.62 41.18 60.9 40.75 60.31 40.18C59.71 39.61 59.25 38.9 58.93 38.05C58.6 37.21 58.44 36.23 58.44 35.13C58.44 34.44 58.52 33.68 58.66 32.83C58.8 32 59.04 31.14 59.36 30.28C59.69 29.42 60.11 28.58 60.62 27.76C61.14 26.94 61.77 26.22 62.51 25.58C63.25 24.95 64.11 24.44 65.09 24.06C66.07 23.67 67.18 23.48 68.44 23.48ZM68.21 26.23C67.5 26.23 66.85 26.35 66.26 26.6C65.66 26.85 65.12 27.19 64.63 27.61C64.15 28.04 63.72 28.55 63.35 29.12C62.98 29.69 62.66 30.31 62.42 30.96C62.17 31.62 61.98 32.3 61.85 33C61.72 33.7 61.66 34.39 61.66 35.06C61.66 35.74 61.75 36.33 61.92 36.83C62.1 37.34 62.35 37.77 62.68 38.12C63 38.46 63.41 38.72 63.88 38.89C64.35 39.06 64.88 39.15 65.47 39.15C66.18 39.15 66.83 39.02 67.42 38.78C68.02 38.53 68.56 38.19 69.05 37.76C69.53 37.33 69.96 36.83 70.33 36.26C70.7 35.68 71.02 35.07 71.27 34.41C71.51 33.76 71.7 33.08 71.83 32.38C71.96 31.67 72.02 30.99 72.02 30.31C72.02 28.97 71.68 27.95 71 27.26C70.32 26.57 69.39 26.23 68.21 26.23ZM87.72 26.23C86.96 26.23 86.26 26.34 85.6 26.56C84.95 26.78 84.36 27.09 83.84 27.47C83.31 27.87 82.86 28.33 82.47 28.86C82.08 29.39 81.76 29.96 81.49 30.59C81.23 31.21 81.03 31.86 80.9 32.55C80.77 33.24 80.71 33.93 80.71 34.62C80.71 35.52 80.82 36.26 81.07 36.84C81.31 37.42 81.64 37.89 82.06 38.23C82.48 38.57 82.97 38.81 83.53 38.94C84.1 39.08 84.7 39.15 85.34 39.15C86.04 39.16 86.76 39.09 87.5 38.96C88.24 38.82 88.98 38.62 89.73 38.37L89.15 41.23C88.44 41.48 87.68 41.65 86.86 41.75C86.05 41.85 85.31 41.9 84.66 41.9C83.6 41.9 82.63 41.76 81.75 41.49C80.87 41.22 80.12 40.8 79.49 40.24C78.85 39.67 78.36 38.95 78.01 38.06C77.67 37.18 77.49 36.12 77.49 34.9C77.49 34.04 77.57 33.15 77.74 32.25C77.92 31.35 78.18 30.48 78.53 29.63C78.89 28.79 79.33 27.99 79.87 27.24C80.41 26.5 81.05 25.85 81.8 25.29C82.54 24.73 83.4 24.29 84.38 23.97C85.36 23.64 86.42 23.48 87.56 23.48C88.18 23.48 88.89 23.54 89.69 23.66C90.49 23.77 91.24 23.94 91.93 24.17L91.39 26.83C90.74 26.63 90.12 26.48 89.54 26.38C88.96 26.28 88.35 26.23 87.72 26.23ZM92.11 41.56L95.74 23.81L98.95 23.81L97.33 31.71L97.38 31.71L104.66 23.81L108.62 23.81L100.23 32.74L105.81 41.56L102.12 41.56L97.04 33.36L96.99 33.36L95.31 41.56L92.11 41.56ZM111.5 38.84L119.79 38.84L119.24 41.56L107.75 41.56L111.38 23.81L122.4 23.81L121.84 26.53L114.04 26.53L113.09 31.12L119.79 31.12L119.24 33.84L112.54 33.84L111.5 38.84ZM130.5 41.56L127.29 41.56L130.38 26.53L124.87 26.53L125.4 23.81L139.65 23.81L139.1 26.53L133.58 26.53L130.5 41.56Z" />
		</g>
	</g>
</svg>