<svg xmlns="http://www.w3.org/2000/svg" viewBox="0 0 100 51" width="100" height="51">
	<style>
		tspan { white-space:pre }
		.shp0 { fill: #707070 } 
	</style>
	<g id="Clients">
		<g id="Logo Set">
			<path id="Logo 1" class="shp0" d="M69 28.94L78.01 28.98L78.01 1.02L69 1.05L69 28.94ZM93.64 8.23C93.76 8.09 94.56 8.01 95.75 8.01C96.32 8.01 96.8 7.94 97.31 7.98C97.85 8.03 98.44 7.9 98.95 7.96L99.95 8L99.95 0.64L99.38 0.39C98.73 0.26 98.02 0.16 97.23 0.1C96.47 0.03 95.6 0 94.62 0C91.17 0 88.54 0.95 86.82 2.81C85.13 4.64 84.99 6.54 84.99 10.2L84.96 11.99L79.99 11.96L80.02 18.97L84.99 19L84.99 29.04L92.99 29.01L92.99 19L98.99 18.97L98.99 11.99L92.99 11.99L92.99 10.51C92.99 8.76 93.44 8.48 93.64 8.23ZM59.89 14.02C58.56 13.12 57.03 12.47 55.34 12.09C53.73 11.73 51.78 11.01 49.67 11.01C38.12 11.01 35.4 17.25 35.1 22.03L34.96 22.99L43.99 22.96L43.99 21.96C44.03 20.75 44.47 20.12 45.25 19.57C46.14 18.95 47.53 18.63 49.39 18.63C51.74 18.63 52.82 19.14 53.36 19.61C53.88 20.02 54.79 20.4 54.96 21.17C55.06 21.52 54.98 22.13 55.01 22.69C55.02 23.01 55.03 23.64 55.04 24L53.34 24C47.02 24 42.38 24.66 39.15 26.52C37.77 27.32 37.87 27.85 37.04 28.98L63.99 28.98L63.96 22.97C63.96 20.33 63.6 19.42 62.96 17.85C62.29 16.22 61.25 14.93 59.89 14.02ZM19.26 11.01C16.45 11.01 13.49 12.76 11.1 14.61C11.1 14.34 11.04 13.78 11.05 13.5C11.06 12.23 11.02 10.06 11.02 8.73L11.08 0.04L2 0.04L2.01 28.98L11.01 28.96L11.02 23.01C12.09 21.82 13.59 20.9 14.6 20.36C15.67 19.81 16.75 19.53 17.82 19.53C18.57 19.53 19.19 19.61 19.67 19.78C20.06 19.92 20.36 20.14 20.6 20.44C20.86 20.76 20.81 20.98 20.95 21.55C21.09 22.24 21.01 23.25 21.01 24.25L21.01 28.98L29.96 29.01L29.96 23.45C29.96 15.39 26.73 11.01 19.26 11.01ZM7.61 51C6.45 51 5.44 50.86 4.57 50.59C3.71 50.31 2.98 49.93 2.41 49.44C1.83 48.94 1.39 48.35 1.09 47.67C0.79 46.98 0.63 46.23 0.6 45.42L2.69 45.42C2.75 46.04 2.92 46.58 3.19 47.04C3.46 47.49 3.82 47.87 4.24 48.17C4.67 48.47 5.17 48.69 5.72 48.83C6.27 48.97 6.87 49.05 7.5 49.05C8.12 49.05 8.67 48.98 9.18 48.85C9.67 48.72 10.1 48.54 10.46 48.29C10.82 48.05 11.09 47.76 11.29 47.42C11.48 47.07 11.58 46.68 11.58 46.24C11.58 45.79 11.49 45.41 11.31 45.1C11.13 44.78 10.84 44.51 10.44 44.28C10.04 44.04 9.51 43.83 8.86 43.65C8.2 43.46 7.4 43.27 6.45 43.07C5.53 42.86 4.74 42.63 4.07 42.36C3.4 42.09 2.86 41.78 2.42 41.42C2 41.05 1.68 40.64 1.47 40.17C1.26 39.7 1.16 39.16 1.16 38.56C1.16 37.89 1.3 37.28 1.59 36.72C1.87 36.17 2.27 35.68 2.78 35.28C3.3 34.88 3.91 34.56 4.63 34.33C5.34 34.11 6.14 33.99 7.01 33.99C7.94 33.99 8.78 34.11 9.53 34.33C10.29 34.56 10.94 34.88 11.49 35.31C12.04 35.74 12.48 36.25 12.79 36.86C13.11 37.48 13.28 38.16 13.3 38.93L11.19 38.93C10.97 36.95 9.61 35.96 7.11 35.96C5.89 35.96 4.95 36.19 4.29 36.64C3.63 37.09 3.3 37.7 3.3 38.47C3.3 38.82 3.36 39.12 3.48 39.36C3.6 39.61 3.81 39.83 4.1 40.01C4.39 40.2 4.78 40.37 5.26 40.52C5.75 40.67 6.35 40.82 7.07 40.97C7.57 41.08 8.07 41.19 8.59 41.31C9.11 41.42 9.61 41.57 10.1 41.74C10.59 41.91 11.06 42.11 11.49 42.35C11.93 42.59 12.31 42.88 12.64 43.22C12.97 43.56 13.23 43.96 13.42 44.43C13.61 44.89 13.7 45.44 13.7 46.06C13.7 46.78 13.55 47.44 13.25 48.04C12.94 48.65 12.52 49.17 11.98 49.6C11.44 50.04 10.79 50.38 10.05 50.63C9.3 50.88 8.49 51 7.61 51ZM30.04 35.96L25.01 35.99L24.98 50.96L22.99 51.05L22.99 35.99L18.03 36.02L18 34L30.01 34L30.04 35.96ZM43.24 51C42.22 51 41.35 50.9 40.64 50.69C39.93 50.49 39.34 50.2 38.86 49.85C38.38 49.5 38 49.09 37.73 48.62C37.46 48.15 37.47 48.25 37.32 47.71C37.18 47.18 37.06 46.25 37.02 45.68C36.99 45.11 37 44.33 37 43.78L37 34.04L38.95 34L38.95 43.74C38.95 44.84 39.05 45.74 39.24 46.43C39.43 47.12 39.71 47.66 40.07 48.05C40.44 48.44 40.88 48.71 41.41 48.84C41.94 48.98 42.55 49.05 43.24 49.05C43.93 49.05 44.54 48.97 45.08 48.83C45.61 48.69 46.05 48.43 46.41 48.03C46.77 47.64 47.76 47.1 47.94 46.41C48.13 45.73 48.04 44.83 48.04 43.74L48 33.97L50.01 34L50.01 43.78C50.01 44.91 50.1 46.05 49.91 46.95C49.71 47.84 48.87 48.47 48.39 49.09C47.9 49.71 47.24 50.18 46.41 50.51C45.58 50.84 44.52 51 43.24 51ZM69.92 42.41C69.92 47.94 67.16 50.96 61.57 50.96L55.99 50.99L56.02 33.97L61.76 34C67.35 34 69.92 36.99 69.92 42.41ZM67.67 42.41C67.67 41.45 67.58 40.59 67.39 39.83C67.19 39.06 66.87 38.42 66.4 37.88C65.93 37.35 65.31 36.95 64.52 36.67C63.72 36.38 62.97 35.96 61.77 35.96L57.98 35.99L57.98 48.98L61.52 48.98C62.72 48.98 63.96 48.64 64.75 48.36C65.55 48.07 65.93 47.62 66.4 47.07C66.87 46.53 67.19 45.86 67.39 45.08C67.58 44.29 67.67 43.4 67.67 42.41ZM79.02 50.93L77 50.96L77.04 34.04L78.96 34L79.02 50.93ZM92.21 33.99C93.35 33.99 94.4 34.2 95.36 34.61C96.31 35.02 97.14 35.59 97.84 36.33C98.54 37.07 99.08 37.96 99.47 39.01C99.86 40.05 100.06 41.21 100.06 42.48C100.06 43.74 99.86 44.9 99.48 45.94C99.09 46.98 98.55 47.88 97.86 48.63C97.17 49.38 96.34 49.96 95.38 50.37C94.41 50.79 93.36 51 92.21 51C91.06 51 90 50.79 89.04 50.38C88.08 49.97 87.25 49.39 86.55 48.64C85.85 47.9 85.31 47.01 84.92 45.96C84.54 44.91 84.34 43.75 84.34 42.48C84.34 41.2 84.54 40.04 84.93 38.99C85.32 37.95 85.87 37.06 86.57 36.32C87.27 35.58 88.1 35.01 89.06 34.6C90.02 34.2 91.07 33.99 92.21 33.99ZM92.19 49.13C93.01 49.13 93.76 48.98 94.45 48.68C95.14 48.38 95.73 47.95 96.23 47.38C96.73 46.81 97.12 46.11 97.39 45.28C97.68 44.46 97.81 43.52 97.81 42.48C97.81 41.44 97.68 40.5 97.39 39.68C97.12 38.86 96.73 38.17 96.23 37.61C95.73 37.04 95.15 36.61 94.46 36.32C93.78 36.02 93.04 35.87 92.24 35.87C91.43 35.87 90.67 36.02 89.98 36.32C89.29 36.62 88.69 37.06 88.19 37.62C87.69 38.19 87.29 38.88 87.02 39.7C86.74 40.52 86.6 41.44 86.6 42.48C86.6 43.52 86.74 44.46 87.01 45.28C87.29 46.11 87.67 46.81 88.17 47.38C88.67 47.95 89.26 48.38 89.94 48.68C90.62 48.98 91.38 49.13 92.19 49.13Z" />
		</g>
	</g>
</svg>