<svg xmlns="http://www.w3.org/2000/svg" viewBox="0 0 20 16" width="20" height="16">
	<style>
		tspan { white-space:pre }
		.shp0 { fill: #ffffff } 
	</style>
	<g id="Footer">
		<g id="Socilal icons">
			<path id="Google" class="shp0" d="M11.02 -0.03L5.98 -0.03C3.7 -0.03 1.56 1.85 1.56 3.79C1.56 5.76 3.11 7.35 5.43 7.35C5.59 7.35 5.74 7.35 5.9 7.34C5.75 7.62 5.64 7.93 5.64 8.26C5.64 8.81 5.94 9.25 6.33 9.61C6.04 9.61 5.76 9.62 5.45 9.62C2.64 9.62 0 11.33 0 13.13C0 14.9 2.84 16.04 5.66 16.04C8.87 16.04 10.95 14.28 10.95 12.51C10.95 11.08 10.21 10.23 8.87 9.31C8.41 9 7.53 8.24 7.53 7.79C7.53 7.26 7.69 7 8.51 6.38C9.35 5.75 9.94 4.86 9.94 3.82C9.94 2.58 9.37 1.38 8.3 0.98L10.97 1.01L11.02 -0.03ZM9.28 12.26C9.07 12.39 9.06 12.69 9.06 12.86C9.06 14.3 8 15.01 5.68 15.01C3.73 15.01 2.02 14.06 2.02 12.63C2.02 11.23 4.04 10.06 5.99 10.08C6.44 10.08 6.86 10.15 7.25 10.28C8.3 10.99 9.06 11.39 9.28 12.2M6.16 6.85C4.85 6.82 3.61 5.44 3.39 3.78C3.16 2.12 4.04 0.84 5.34 0.88C6.65 0.92 7.89 2.26 8.12 3.92C8.34 5.58 7.47 6.89 6.16 6.85M15.99 3.93L15.99 -0.03L15 -0.03L15 3.99L10.99 4.02L11.05 5L15.03 4.97L15 9.02L15.99 8.99L15.96 5L20 4.97L20.03 3.93L15.99 3.93Z" />
		</g>
	</g>
</svg>