<svg xmlns="http://www.w3.org/2000/svg" viewBox="0 0 20 16" width="20" height="16">
	<style>
		tspan { white-space:pre }
		.shp0 { fill: #ffffff } 
	</style>
	<g id="Footer">
		<g id="Socilal icons">
			<path id="Twitter" class="shp0" d="M19.54 2.21C18.83 2.53 18.07 2.74 17.27 2.84C18.08 2.35 18.71 1.57 19 0.65C18.24 1.11 17.4 1.44 16.5 1.61C15.78 0.84 14.75 0.37 13.62 0.37C11.44 0.37 9.67 2.13 9.67 4.31C9.67 4.62 9.7 4.92 9.77 5.21C6.49 5.05 3.58 3.47 1.64 1.09C1.29 1.67 1.1 2.35 1.1 3.07C1.1 4.44 1.8 5.65 2.86 6.36C2.21 6.34 1.6 6.16 1.07 5.86C1.07 5.88 1.07 5.9 1.07 5.91C1.07 7.83 2.43 9.42 4.23 9.78C3.9 9.87 3.55 9.92 3.19 9.92C2.94 9.92 2.69 9.9 2.45 9.85C2.95 11.42 4.41 12.56 6.14 12.59C4.79 13.65 3.08 14.28 1.24 14.28C0.92 14.28 0.6 14.26 0.29 14.23C2.04 15.35 4.12 16 6.34 16C13.61 16 17.58 9.99 17.58 4.77C17.58 4.6 17.57 4.43 17.57 4.26C18.34 3.7 19.01 3.01 19.54 2.21" />
		</g>
	</g>
</svg>