<svg xmlns="http://www.w3.org/2000/svg" viewBox="0 0 17 17" width="17" height="17">
	<style>
		tspan { white-space:pre }
		.shp0 { fill: #ffffff } 
	</style>
	<g id="Footer">
		<g id="Socilal icons">
			<path id="Dribble" class="shp0" d="M8.5 16.73C3.88 16.73 0.12 12.97 0.12 8.35C0.12 3.73 3.88 -0.03 8.5 -0.03C13.12 -0.03 16.88 3.73 16.88 8.35C16.88 12.97 13.12 16.73 8.5 16.73M15.57 9.5C15.32 9.42 13.36 8.83 11.11 9.19C12.05 11.76 12.43 13.86 12.5 14.3C14.11 13.21 15.25 11.49 15.57 9.5M11.3 14.95C11.19 14.32 10.77 12.13 9.77 9.52C9.75 9.53 9.74 9.53 9.72 9.54C5.68 10.95 4.23 13.75 4.11 14.01C5.32 14.96 6.85 15.52 8.5 15.52C9.49 15.52 10.44 15.32 11.3 14.95M3.18 13.15C3.34 12.87 5.31 9.62 9 8.42C9.1 8.39 9.19 8.36 9.28 8.34C9.1 7.93 8.91 7.52 8.7 7.12C5.13 8.19 1.66 8.15 1.34 8.14C1.34 8.22 1.34 8.29 1.34 8.36C1.34 10.2 2.04 11.88 3.18 13.15M1.49 6.89C1.81 6.9 4.76 6.91 8.11 6.02C6.93 3.91 5.65 2.14 5.46 1.88C3.45 2.82 1.96 4.67 1.49 6.89M6.82 1.4C7.02 1.66 8.32 3.44 9.49 5.59C12.04 4.64 13.12 3.19 13.25 3C11.98 1.88 10.32 1.2 8.5 1.2C7.92 1.2 7.36 1.27 6.82 1.4M14.04 3.83C13.89 4.04 12.69 5.58 10.05 6.66C10.21 7 10.37 7.34 10.52 7.69C10.57 7.82 10.62 7.94 10.67 8.06C13.06 7.76 15.42 8.24 15.66 8.29C15.65 6.6 15.04 5.05 14.04 3.83" />
		</g>
	</g>
</svg>